<?xml version="1.0" encoding="utf-8"?>
<!-- Generator: Adobe Illustrator 25.0.0, SVG Export Plug-In . SVG Version: 6.00 Build 0)  -->
<svg version="1.1" id="레이어_1" xmlns="http://www.w3.org/2000/svg" xmlns:xlink="http://www.w3.org/1999/xlink" x="0px"
	 y="0px" viewBox="0 0 250 100" style="enable-background:new 0 0 250 100;" xml:space="preserve">
<style type="text/css">
	.st0{fill:#6699FF;stroke:#000000;stroke-width:0.75;stroke-miterlimit:10;}
</style>
<g>
	<path class="st0" d="M91.5,52.66c0-2.62,0.01-5.25-0.01-7.87c-0.01-1.24,0.53-1.82,1.8-1.79c2.25,0.04,4.51-0.13,6.74,0.07
		c4.08,0.37,6.43,4.01,4.88,7.8c-0.57,1.4-0.28,2.1,0.44,3.22c2.29,3.58,0.24,7.94-4.01,8.32c-2.97,0.27-5.98,0-8.98-0.03
		c-1.8-2.58-0.45-5.5-0.87-8.23c-0.07-0.49-0.01-1-0.01-1.5C91.49,52.66,91.49,52.66,91.5,52.66z M98.84,59.26
		c0.31-0.05,1.29-0.17,2.25-0.36c1.22-0.24,2.08-0.92,1.96-2.26c-0.11-1.25-0.94-2.05-2.14-2.2c-1.22-0.15-2.46-0.06-3.7-0.1
		c-1.38-0.04-1.98,0.61-2.05,1.99C95.03,58.75,95.49,59.24,98.84,59.26z M99.13,46.66c-1.1,0-1.72,0-2.34,0
		c-1.06,0.01-1.64,0.53-1.6,1.6c0.04,1.07-0.37,2.44,1.16,2.77c1.33,0.29,2.73,0.29,4.07-0.08c0.91-0.25,1.45-0.94,1.52-1.92
		c0.06-0.77-0.06-1.51-0.75-1.99C100.42,46.52,99.52,46.68,99.13,46.66z"/>
	<path class="st0" d="M74.24,52.78c0-2.5,0.09-5-0.03-7.5c-0.09-1.87,0.72-2.41,2.45-2.31c1.87,0.11,3.75-0.06,5.62,0.05
		c4.58,0.26,6.97,3.79,5.26,8.05c-0.54,1.33-0.16,1.93,0.48,2.92c2.42,3.74,0.3,8.08-4.18,8.46c-2.61,0.22-5.25,0.02-7.87,0.05
		c-1.31,0.02-1.75-0.64-1.73-1.85C74.27,58.03,74.25,55.41,74.24,52.78C74.25,52.78,74.24,52.78,74.24,52.78z M81.4,54.33
		c-3.3-0.01-3.49,0.12-3.5,2.35c-0.01,2.2,0.29,2.51,2.61,2.59c1.25,0.05,2.48-0.05,3.69-0.44c0.92-0.29,1.53-0.87,1.63-1.82
		c0.11-1.13-0.55-1.89-1.49-2.37C83.42,54.17,82.39,54.35,81.4,54.33z M81.21,51.17c0.33-0.02,1.11,0.04,1.81-0.16
		c1.23-0.35,1.82-1.25,1.67-2.56c-0.13-1.19-0.85-1.75-2.01-1.78c-1-0.03-2-0.01-2.99-0.03c-1.25-0.02-1.75,0.58-1.79,1.83
		C77.84,50.71,78.25,51.14,81.21,51.17z"/>
	<path class="st0" d="M129.3,52.62c0-2.5,0.06-5-0.02-7.49c-0.05-1.64,0.67-2.2,2.23-2.14c1.87,0.08,3.75-0.08,5.62,0.03
		c4.59,0.27,7.03,3.84,5.3,8.05c-0.54,1.33-0.18,1.87,0.45,2.86c2.43,3.76,0.33,8.09-4.15,8.5c-2.48,0.23-4.99,0-7.49,0.08
		c-1.5,0.05-1.97-0.67-1.95-2.03C129.33,57.86,129.31,55.24,129.3,52.62C129.31,52.62,129.31,52.62,129.3,52.62z M137.13,54.36
		c-1.32,0-1.94-0.01-2.56,0c-1.35,0.02-1.61,0.93-1.57,2.01c0.04,1.05-0.39,2.45,1.14,2.74c1.7,0.33,3.45,0.3,5.12-0.36
		c0.9-0.36,1.4-1.04,1.41-1.98c0.01-0.95-0.53-1.62-1.34-2.07C138.42,54.21,137.41,54.38,137.13,54.36z M136.27,46.62
		c0,0.02,0,0.05,0,0.07c-0.61,0-1.23-0.02-1.84,0.01c-0.86,0.04-1.37,0.51-1.37,1.38c0,0.94-0.37,2,0.55,2.74
		c0.94,0.76,4.77,0.33,5.56-0.59c1.07-1.23,0.53-3.07-1.07-3.47C137.51,46.62,136.88,46.66,136.27,46.62z"/>
	<path class="st0" d="M167.74,52.37c0-2.37,0.05-4.74-0.02-7.11c-0.04-1.49,0.35-2.33,2.06-2.3c3.36,0.07,6.73,0.03,10.1,0.02
		c1.13,0,1.91,0.24,1.95,1.62c0.04,1.4-0.45,2.08-1.92,2.06c-2.24-0.04-4.49,0.03-6.73,0c-1.55-0.03-1.85,0.84-1.83,2.15
		c0.01,1.29,0.63,1.79,1.84,1.75c0.62-0.02,1.25,0,1.87,0.02c2.88,0.07,3.21,0.28,3.18,1.89c-0.04,2.28-1.77,1.56-3,1.69
		c-0.49,0.05-1-0.01-1.49,0.01c-2.19,0.11-2.4,0.32-2.4,2.32c0,2,0.22,2.26,2.41,2.32c2.12,0.06,4.24,0.05,6.36,0.02
		c1.25-0.02,1.8,0.53,1.81,1.79c0.01,1.19-0.33,1.89-1.67,1.88c-3.61-0.03-7.23-0.03-10.84,0c-1.34,0.01-1.67-0.73-1.66-1.9
		C167.77,57.86,167.75,55.12,167.74,52.37C167.75,52.37,167.75,52.37,167.74,52.37z"/>
	<path class="st0" d="M155.34,43.05c1.71-0.36,2.46,0.52,2.98,2.04c1.74,5.08,3.62,10.11,5.38,15.18c0.23,0.66,1.25,1.71-0.13,2.12
		c-0.99,0.29-2.26,0.51-3.1-0.58c-0.22-0.28-0.23-0.71-0.41-1.04c-0.56-1.04-0.35-2.66-1.93-2.95c-1.85-0.34-3.73-0.39-5.58,0.07
		c-0.65,0.16-0.94,0.77-1.16,1.37c-0.25,0.71-0.49,1.42-0.76,2.11c-0.64,1.65-2.12,1.29-3.19,0.98c-1.26-0.37-0.41-1.46-0.17-2.19
		c1.59-5,3.28-9.96,4.82-14.97C152.62,43.43,153.59,42.7,155.34,43.05z M155.21,54.82c2.32,0.05,2.71-0.36,1.98-2.53
		c-0.5-1.5-0.65-3.17-1.76-4.44c-1.67,1.06-1.48,2.96-1.96,4.53C152.82,54.44,153.15,54.78,155.21,54.82z"/>
	<path class="st0" d="M125.27,62.45c-1.77,0.38-2.53-0.57-2.86-2.12c-0.41-1.91-1.25-3.12-3.57-2.76c-2.11,0.32-4.68-0.59-5.28,2.66
		c-0.09,0.48-0.31,0.95-0.54,1.39c-0.7,1.33-1.98,0.99-2.98,0.75c-1.39-0.32-0.55-1.38-0.32-2.11c1.63-5.09,3.34-10.16,4.93-15.27
		c0.5-1.61,1.41-2.07,3.01-2.05c1.52,0.03,2.52,0.27,3.09,1.94c1.79,5.3,3.75,10.55,5.65,15.81
		C126.82,61.85,126.92,62.73,125.27,62.45z M117.69,54.81c2.33,0.06,2.75-0.37,2.01-2.52c-0.52-1.5-0.66-3.17-1.77-4.43
		c-1.67,1.05-1.5,2.95-1.98,4.51C115.31,54.46,115.62,54.76,117.69,54.81z"/>
</g>
</svg>
